<mxfile host="app.diagrams.net" modified="2023-09-17T12:41:54.902Z" agent="Mozilla/5.0 (Windows NT 10.0; Win64; x64) AppleWebKit/537.36 (KHTML, like Gecko) Chrome/116.0.0.0 Safari/537.36" etag="Wevoocy3K6_VLUNdUAd5" version="21.7.5" type="device">
  <diagram name="Page-1" id="9f46799a-70d6-7492-0946-bef42562c5a5">
    <mxGraphModel dx="1363" dy="871" grid="1" gridSize="10" guides="1" tooltips="1" connect="1" arrows="1" fold="1" page="1" pageScale="1" pageWidth="1100" pageHeight="850" background="none" math="0" shadow="0">
      <root>
        <mxCell id="0" />
        <mxCell id="1" parent="0" />
        <mxCell id="D7ge4e6ua518F_ma1OPR-1" value="Pacient" style="swimlane;childLayout=stackLayout;horizontal=1;startSize=50;horizontalStack=0;rounded=1;fontSize=14;fontStyle=0;strokeWidth=2;resizeParent=0;resizeLast=1;shadow=0;dashed=0;align=center;arcSize=4;whiteSpace=wrap;html=1;" vertex="1" parent="1">
          <mxGeometry x="260" y="255" width="100" height="120" as="geometry" />
        </mxCell>
        <mxCell id="D7ge4e6ua518F_ma1OPR-2" value="-name&lt;br&gt;-gender&lt;br&gt;-age" style="align=left;strokeColor=none;fillColor=none;spacingLeft=4;fontSize=12;verticalAlign=top;resizable=0;rotatable=0;part=1;html=1;" vertex="1" parent="D7ge4e6ua518F_ma1OPR-1">
          <mxGeometry y="50" width="100" height="70" as="geometry" />
        </mxCell>
        <mxCell id="D7ge4e6ua518F_ma1OPR-4" value="" style="endArrow=classic;html=1;rounded=0;entryX=0;entryY=0.5;entryDx=0;entryDy=0;" edge="1" parent="1" target="D7ge4e6ua518F_ma1OPR-5">
          <mxGeometry width="50" height="50" relative="1" as="geometry">
            <mxPoint x="360" y="315" as="sourcePoint" />
            <mxPoint x="430" y="315" as="targetPoint" />
          </mxGeometry>
        </mxCell>
        <mxCell id="D7ge4e6ua518F_ma1OPR-8" value="" style="edgeStyle=orthogonalEdgeStyle;rounded=0;orthogonalLoop=1;jettySize=auto;html=1;" edge="1" parent="1" source="D7ge4e6ua518F_ma1OPR-5" target="D7ge4e6ua518F_ma1OPR-7">
          <mxGeometry relative="1" as="geometry" />
        </mxCell>
        <mxCell id="D7ge4e6ua518F_ma1OPR-5" value="SelectDoctor(Doctor)" style="shape=rhombus;perimeter=rhombusPerimeter;whiteSpace=wrap;html=1;align=center;" vertex="1" parent="1">
          <mxGeometry x="390" y="285" width="130" height="60" as="geometry" />
        </mxCell>
        <mxCell id="D7ge4e6ua518F_ma1OPR-17" value="" style="edgeStyle=orthogonalEdgeStyle;rounded=0;orthogonalLoop=1;jettySize=auto;html=1;" edge="1" parent="1" source="D7ge4e6ua518F_ma1OPR-7" target="D7ge4e6ua518F_ma1OPR-16">
          <mxGeometry relative="1" as="geometry" />
        </mxCell>
        <mxCell id="D7ge4e6ua518F_ma1OPR-49" style="edgeStyle=orthogonalEdgeStyle;rounded=0;orthogonalLoop=1;jettySize=auto;html=1;exitX=1;exitY=0.5;exitDx=0;exitDy=0;entryX=0;entryY=0.5;entryDx=0;entryDy=0;" edge="1" parent="1" source="D7ge4e6ua518F_ma1OPR-7" target="D7ge4e6ua518F_ma1OPR-32">
          <mxGeometry relative="1" as="geometry" />
        </mxCell>
        <mxCell id="D7ge4e6ua518F_ma1OPR-7" value="SelectDate(Date)" style="shape=rhombus;perimeter=rhombusPerimeter;whiteSpace=wrap;html=1;align=center;" vertex="1" parent="1">
          <mxGeometry x="540" y="285" width="130" height="60" as="geometry" />
        </mxCell>
        <mxCell id="D7ge4e6ua518F_ma1OPR-15" value="Appointment" style="swimlane;childLayout=stackLayout;horizontal=1;startSize=50;horizontalStack=0;rounded=1;fontSize=14;fontStyle=0;strokeWidth=2;resizeParent=0;resizeLast=1;shadow=0;dashed=0;align=center;arcSize=4;whiteSpace=wrap;html=1;" vertex="1" parent="1">
          <mxGeometry x="690" y="500" width="200" height="200" as="geometry" />
        </mxCell>
        <mxCell id="D7ge4e6ua518F_ma1OPR-16" value="-Pacient&lt;br&gt;-Doctor&lt;br&gt;+Date&lt;br&gt;+isAccepted" style="align=left;strokeColor=none;fillColor=none;spacingLeft=4;fontSize=12;verticalAlign=top;resizable=0;rotatable=0;part=1;html=1;" vertex="1" parent="D7ge4e6ua518F_ma1OPR-15">
          <mxGeometry y="50" width="200" height="120" as="geometry" />
        </mxCell>
        <mxCell id="D7ge4e6ua518F_ma1OPR-28" value="" style="rounded=0;whiteSpace=wrap;html=1;" vertex="1" parent="D7ge4e6ua518F_ma1OPR-15">
          <mxGeometry y="170" width="200" height="-40" as="geometry" />
        </mxCell>
        <mxCell id="D7ge4e6ua518F_ma1OPR-34" value="&lt;br&gt;&lt;span style=&quot;color: rgb(0, 0, 0); font-family: Helvetica; font-size: 12px; font-style: normal; font-variant-ligatures: normal; font-variant-caps: normal; font-weight: 400; letter-spacing: normal; orphans: 2; text-align: center; text-indent: 0px; text-transform: none; widows: 2; word-spacing: 0px; -webkit-text-stroke-width: 0px; background-color: rgb(251, 251, 251); text-decoration-thickness: initial; text-decoration-style: initial; text-decoration-color: initial; float: none; display: inline !important;&quot;&gt;SelectDoctor(Doctor)&lt;/span&gt;&lt;br&gt;SelectDate(Date)&lt;br&gt;AcceptAppoiintment(Appointment)" style="rounded=0;whiteSpace=wrap;html=1;" vertex="1" parent="D7ge4e6ua518F_ma1OPR-15">
          <mxGeometry y="130" width="200" height="70" as="geometry" />
        </mxCell>
        <mxCell id="D7ge4e6ua518F_ma1OPR-25" value="" style="edgeStyle=orthogonalEdgeStyle;rounded=0;orthogonalLoop=1;jettySize=auto;html=1;entryX=1;entryY=0.25;entryDx=0;entryDy=0;dashed=1;exitX=0.5;exitY=1;exitDx=0;exitDy=0;" edge="1" parent="1" source="D7ge4e6ua518F_ma1OPR-5" target="D7ge4e6ua518F_ma1OPR-19">
          <mxGeometry relative="1" as="geometry" />
        </mxCell>
        <mxCell id="D7ge4e6ua518F_ma1OPR-18" value="Doctor" style="swimlane;childLayout=stackLayout;horizontal=1;startSize=50;horizontalStack=0;rounded=1;fontSize=14;fontStyle=0;strokeWidth=2;resizeParent=0;resizeLast=1;shadow=0;dashed=0;align=center;arcSize=4;whiteSpace=wrap;html=1;" vertex="1" parent="1">
          <mxGeometry x="40" y="410" width="100" height="150" as="geometry" />
        </mxCell>
        <mxCell id="D7ge4e6ua518F_ma1OPR-19" value="-name&lt;br&gt;+Cabinet&lt;br&gt;-Disease&lt;br&gt;-Array(queue)" style="align=left;strokeColor=none;fillColor=none;spacingLeft=4;fontSize=12;verticalAlign=top;resizable=0;rotatable=0;part=1;html=1;" vertex="1" parent="D7ge4e6ua518F_ma1OPR-18">
          <mxGeometry y="50" width="100" height="100" as="geometry" />
        </mxCell>
        <mxCell id="D7ge4e6ua518F_ma1OPR-26" value="" style="edgeStyle=orthogonalEdgeStyle;rounded=0;orthogonalLoop=1;jettySize=auto;html=1;dashed=1;" edge="1" parent="1" source="D7ge4e6ua518F_ma1OPR-21" target="D7ge4e6ua518F_ma1OPR-19">
          <mxGeometry relative="1" as="geometry" />
        </mxCell>
        <mxCell id="D7ge4e6ua518F_ma1OPR-21" value="Disease" style="swimlane;childLayout=stackLayout;horizontal=1;startSize=50;horizontalStack=0;rounded=1;fontSize=14;fontStyle=0;strokeWidth=2;resizeParent=0;resizeLast=1;shadow=0;dashed=0;align=center;arcSize=4;whiteSpace=wrap;html=1;" vertex="1" parent="1">
          <mxGeometry x="40" y="620" width="100" height="120" as="geometry" />
        </mxCell>
        <mxCell id="D7ge4e6ua518F_ma1OPR-22" value="-name" style="align=left;strokeColor=none;fillColor=none;spacingLeft=4;fontSize=12;verticalAlign=top;resizable=0;rotatable=0;part=1;html=1;" vertex="1" parent="D7ge4e6ua518F_ma1OPR-21">
          <mxGeometry y="50" width="100" height="70" as="geometry" />
        </mxCell>
        <mxCell id="D7ge4e6ua518F_ma1OPR-27" style="edgeStyle=orthogonalEdgeStyle;rounded=0;orthogonalLoop=1;jettySize=auto;html=1;exitX=0.5;exitY=0;exitDx=0;exitDy=0;entryX=1;entryY=0.5;entryDx=0;entryDy=0;dashed=1;" edge="1" parent="1" source="D7ge4e6ua518F_ma1OPR-23" target="D7ge4e6ua518F_ma1OPR-19">
          <mxGeometry relative="1" as="geometry" />
        </mxCell>
        <mxCell id="D7ge4e6ua518F_ma1OPR-23" value="Cabinet" style="swimlane;childLayout=stackLayout;horizontal=1;startSize=50;horizontalStack=0;rounded=1;fontSize=14;fontStyle=0;strokeWidth=2;resizeParent=0;resizeLast=1;shadow=0;dashed=0;align=center;arcSize=4;whiteSpace=wrap;html=1;" vertex="1" parent="1">
          <mxGeometry x="200" y="620" width="100" height="120" as="geometry" />
        </mxCell>
        <mxCell id="D7ge4e6ua518F_ma1OPR-24" value="-number" style="align=left;strokeColor=none;fillColor=none;spacingLeft=4;fontSize=12;verticalAlign=top;resizable=0;rotatable=0;part=1;html=1;" vertex="1" parent="D7ge4e6ua518F_ma1OPR-23">
          <mxGeometry y="50" width="100" height="70" as="geometry" />
        </mxCell>
        <mxCell id="D7ge4e6ua518F_ma1OPR-36" value="" style="edgeStyle=orthogonalEdgeStyle;rounded=0;orthogonalLoop=1;jettySize=auto;html=1;entryX=0;entryY=0.5;entryDx=0;entryDy=0;" edge="1" parent="1" source="D7ge4e6ua518F_ma1OPR-32" target="D7ge4e6ua518F_ma1OPR-35">
          <mxGeometry relative="1" as="geometry" />
        </mxCell>
        <mxCell id="D7ge4e6ua518F_ma1OPR-38" value="" style="edgeStyle=orthogonalEdgeStyle;rounded=0;orthogonalLoop=1;jettySize=auto;html=1;" edge="1" parent="1" source="D7ge4e6ua518F_ma1OPR-32" target="D7ge4e6ua518F_ma1OPR-37">
          <mxGeometry relative="1" as="geometry" />
        </mxCell>
        <mxCell id="D7ge4e6ua518F_ma1OPR-40" style="edgeStyle=orthogonalEdgeStyle;rounded=0;orthogonalLoop=1;jettySize=auto;html=1;exitX=1;exitY=0.5;exitDx=0;exitDy=0;entryX=0;entryY=0.5;entryDx=0;entryDy=0;" edge="1" parent="1" source="D7ge4e6ua518F_ma1OPR-32" target="D7ge4e6ua518F_ma1OPR-39">
          <mxGeometry relative="1" as="geometry" />
        </mxCell>
        <mxCell id="D7ge4e6ua518F_ma1OPR-50" style="edgeStyle=orthogonalEdgeStyle;rounded=0;orthogonalLoop=1;jettySize=auto;html=1;exitX=0.5;exitY=1;exitDx=0;exitDy=0;entryX=0.75;entryY=0;entryDx=0;entryDy=0;dashed=1;" edge="1" parent="1" source="D7ge4e6ua518F_ma1OPR-32" target="D7ge4e6ua518F_ma1OPR-15">
          <mxGeometry relative="1" as="geometry" />
        </mxCell>
        <mxCell id="D7ge4e6ua518F_ma1OPR-32" value="New Appointment(This.Pacient,&lt;span style=&quot;font-size: 12px; text-align: left;&quot;&gt;Doctor,&lt;/span&gt;&lt;span style=&quot;font-size: 12px; text-align: left;&quot;&gt;Date&lt;/span&gt;&lt;span style=&quot;background-color: initial; font-size: 12px; text-align: left;&quot;&gt;)&lt;/span&gt;&lt;span style=&quot;font-size: 12px; text-align: left;&quot;&gt;&lt;br&gt;&lt;/span&gt;" style="rhombus;whiteSpace=wrap;html=1;fontSize=14;fontStyle=0;startSize=50;rounded=1;strokeWidth=2;shadow=0;dashed=0;arcSize=4;" vertex="1" parent="1">
          <mxGeometry x="720" y="255" width="310" height="110" as="geometry" />
        </mxCell>
        <mxCell id="D7ge4e6ua518F_ma1OPR-46" value="" style="edgeStyle=orthogonalEdgeStyle;rounded=0;orthogonalLoop=1;jettySize=auto;html=1;" edge="1" parent="1" source="D7ge4e6ua518F_ma1OPR-35" target="D7ge4e6ua518F_ma1OPR-45">
          <mxGeometry relative="1" as="geometry" />
        </mxCell>
        <mxCell id="D7ge4e6ua518F_ma1OPR-35" value="&#xa;&lt;span style=&quot;color: rgb(0, 0, 0); font-family: Helvetica; font-size: 12px; font-style: normal; font-variant-ligatures: normal; font-variant-caps: normal; font-weight: 400; letter-spacing: normal; orphans: 2; text-align: center; text-indent: 0px; text-transform: none; widows: 2; word-spacing: 0px; -webkit-text-stroke-width: 0px; background-color: rgb(251, 251, 251); text-decoration-thickness: initial; text-decoration-style: initial; text-decoration-color: initial; float: none; display: inline !important;&quot;&gt;AcceptAppoiintment(Appointment)&lt;/span&gt;&#xa;&#xa;" style="rhombus;whiteSpace=wrap;html=1;fontSize=14;fontStyle=0;startSize=50;rounded=1;strokeWidth=2;shadow=0;dashed=0;arcSize=4;" vertex="1" parent="1">
          <mxGeometry x="1070" y="80" width="310" height="140" as="geometry" />
        </mxCell>
        <mxCell id="D7ge4e6ua518F_ma1OPR-48" style="edgeStyle=orthogonalEdgeStyle;rounded=0;orthogonalLoop=1;jettySize=auto;html=1;exitX=1;exitY=0.5;exitDx=0;exitDy=0;entryX=0;entryY=0.5;entryDx=0;entryDy=0;" edge="1" parent="1" source="D7ge4e6ua518F_ma1OPR-37" target="D7ge4e6ua518F_ma1OPR-45">
          <mxGeometry relative="1" as="geometry" />
        </mxCell>
        <mxCell id="D7ge4e6ua518F_ma1OPR-37" value="SelectDate(Date)" style="rhombus;whiteSpace=wrap;html=1;fontSize=14;fontStyle=0;startSize=50;rounded=1;strokeWidth=2;shadow=0;dashed=0;arcSize=4;" vertex="1" parent="1">
          <mxGeometry x="1080" y="255" width="310" height="110" as="geometry" />
        </mxCell>
        <mxCell id="D7ge4e6ua518F_ma1OPR-47" style="edgeStyle=orthogonalEdgeStyle;rounded=0;orthogonalLoop=1;jettySize=auto;html=1;exitX=1;exitY=0.5;exitDx=0;exitDy=0;entryX=0.5;entryY=1;entryDx=0;entryDy=0;" edge="1" parent="1" source="D7ge4e6ua518F_ma1OPR-39" target="D7ge4e6ua518F_ma1OPR-45">
          <mxGeometry relative="1" as="geometry" />
        </mxCell>
        <mxCell id="D7ge4e6ua518F_ma1OPR-39" value="&lt;span style=&quot;font-size: 12px; text-align: left;&quot;&gt;remove(this.Appointment)&lt;br&gt;&lt;/span&gt;" style="rhombus;whiteSpace=wrap;html=1;fontSize=14;fontStyle=0;startSize=50;rounded=1;strokeWidth=2;shadow=0;dashed=0;arcSize=4;" vertex="1" parent="1">
          <mxGeometry x="1080" y="410" width="300" height="110" as="geometry" />
        </mxCell>
        <mxCell id="D7ge4e6ua518F_ma1OPR-41" value="schedule" style="swimlane;childLayout=stackLayout;horizontal=1;startSize=50;horizontalStack=0;rounded=1;fontSize=14;fontStyle=0;strokeWidth=2;resizeParent=0;resizeLast=1;shadow=0;dashed=0;align=center;arcSize=4;whiteSpace=wrap;html=1;" vertex="1" parent="1">
          <mxGeometry x="1500" y="590" width="140" height="110" as="geometry" />
        </mxCell>
        <mxCell id="D7ge4e6ua518F_ma1OPR-42" value="file" style="align=left;strokeColor=none;fillColor=none;spacingLeft=4;fontSize=12;verticalAlign=top;resizable=0;rotatable=0;part=1;html=1;" vertex="1" parent="D7ge4e6ua518F_ma1OPR-41">
          <mxGeometry y="50" width="140" height="30" as="geometry" />
        </mxCell>
        <mxCell id="D7ge4e6ua518F_ma1OPR-44" value="write(this.file,Appointment&lt;br&gt;)" style="rounded=0;whiteSpace=wrap;html=1;" vertex="1" parent="D7ge4e6ua518F_ma1OPR-41">
          <mxGeometry y="80" width="140" height="30" as="geometry" />
        </mxCell>
        <mxCell id="D7ge4e6ua518F_ma1OPR-51" style="edgeStyle=orthogonalEdgeStyle;rounded=0;orthogonalLoop=1;jettySize=auto;html=1;exitX=1;exitY=1;exitDx=0;exitDy=0;dashed=1;" edge="1" parent="1" source="D7ge4e6ua518F_ma1OPR-45" target="D7ge4e6ua518F_ma1OPR-41">
          <mxGeometry relative="1" as="geometry" />
        </mxCell>
        <mxCell id="D7ge4e6ua518F_ma1OPR-45" value="write" style="rhombus;whiteSpace=wrap;html=1;fontSize=14;fontStyle=0;startSize=50;rounded=1;strokeWidth=2;shadow=0;dashed=0;arcSize=4;" vertex="1" parent="1">
          <mxGeometry x="1430" y="280" width="100" height="60" as="geometry" />
        </mxCell>
      </root>
    </mxGraphModel>
  </diagram>
</mxfile>
